# xmcd
# 
# Track frame offsets:
#     150
#     9810
#     22240
#     34577
#     44477
#     58025
#     70067
#     82365
#     93610
#     104645
#     119082
#     138635
# 
# Disc length: 2011
# 
# Revision: 0
# Processed by: cddbd v1.5.2PL0 Copyright (c) Steve Scherf et al.
# Submitted via: BonkEnc v1.0.8
# 
DISCID=b107d90c
DTITLE=Koko Taylor - Koko Taylor
DYEAR=1969
DGENRE=Blues
TTITLE0=Love you like a woman
TTITLE1=I love a lover like you
TTITLE2=Don't mess with the messer
TTITLE3=I don't care who know
TTITLE4=Wang dang doodle
TTITLE5=I'm a little mixed up
TTITLE6=Nitty gritty
TTITLE7=Fire
TTITLE8=Whatever I am, you made me
TTITLE9=Twenty-nine ways
TTITLE10=Insane Asylum
TTITLE11=Yes, it's good for you
EXTD=MCA Records
EXTT0=
EXTT1=
EXTT2=
EXTT3=
EXTT4=
EXTT5=
EXTT6=
EXTT7=
EXTT8=
EXTT9=
EXTT10=
EXTT11=
PLAYORDER=
